<?xml version="1.0" standalone="no"?>
<svg xmlns="http://www.w3.org/2000/svg" viewBox="0 0 120.5 29" width="120.5" height="29"><path fill="#000000" fill-rule="nonzero" d="M10.37 14.26L10.37 14.26L10.37 14.62Q10.22 16.42 8.84 17.33Q7.46 18.24 5.40 18.24L5.40 18.24Q2.35 18.24 1.13 17.14L1.13 17.14Q0 16.13 0 14.16L0 14.16L0 13.87L2.83 13.87Q2.83 14.98 3.41 15.38Q3.98 15.79 5.40 15.79L5.40 15.79Q7.32 15.79 7.32 14.40L7.32 14.40Q7.32 13.25 6.65 12.86L6.65 12.86Q6.34 12.67 5.86 12.58L5.86 12.58L3.43 12.17Q0.26 11.66 0.26 8.21L0.26 8.21Q0.26 6.29 1.67 5.22Q3.07 4.15 5.23 4.15L5.23 4.15Q10.15 4.15 10.15 8.40L10.15 8.40L10.15 8.71L7.44 8.71Q7.39 7.58 6.84 7.18Q6.29 6.77 5.29 6.77Q4.30 6.77 3.79 7.16Q3.29 7.56 3.29 8.04L3.29 8.04Q3.29 9.41 4.39 9.60L4.39 9.60L7.30 10.13Q10.37 10.70 10.37 14.26ZM18.84 15.41L18.84 18.05L16.90 18.05Q15.12 18.05 14.20 16.99Q13.27 15.94 13.27 14.47L13.27 14.47L13.27 7.27L11.95 7.27L11.95 4.90L13.27 4.90L13.27 2.21L16.39 2.21L16.39 4.90L18.60 4.90L18.60 7.27L16.39 7.27L16.39 14.28Q16.39 15.41 17.47 15.41L17.47 15.41L18.84 15.41ZM28.85 11.86L28.85 11.86L28.85 10.61Q28.85 8.83 28.33 7.90Q27.82 6.96 26.18 6.96L26.18 6.96Q23.54 6.96 23.54 10.51L23.54 10.51L23.54 11.76Q23.54 15.58 26.18 15.58L26.18 15.58Q27.89 15.58 28.42 14.30L28.42 14.30Q28.85 13.30 28.85 11.86ZM31.97 11.14L31.97 11.14Q31.97 15.58 30.29 17.09L30.29 17.09Q28.87 18.38 26.18 18.38L26.18 18.38Q22.75 18.38 21.55 16.37L21.55 16.37Q20.42 14.52 20.42 11.14L20.42 11.14Q20.42 7.97 21.55 6.17L21.55 6.17Q22.80 4.15 26.10 4.15Q29.40 4.15 30.68 5.92Q31.97 7.68 31.97 11.14ZM41.47 13.03L41.47 13.03L44.30 13.01Q44.28 13.20 44.26 13.70Q44.23 14.21 44.22 14.39Q44.21 14.57 44.16 14.95Q44.11 15.34 44.05 15.52Q43.99 15.70 43.90 15.98L43.90 15.98Q43.46 17.23 41.54 17.95L41.54 17.95Q40.32 18.38 38.99 18.38Q37.66 18.38 36.58 17.95Q35.50 17.52 34.87 16.85L34.87 16.85Q33.46 15.36 33.46 11.27Q33.46 7.18 34.87 5.69L34.87 5.69Q35.50 5.02 36.58 4.58Q37.66 4.15 38.98 4.15L38.98 4.15Q41.57 4.15 42.91 5.45Q44.26 6.74 44.26 9.05L44.26 9.05L41.42 9.05Q41.42 7.99 40.90 7.48Q40.37 6.96 38.94 6.96Q37.51 6.96 37.04 7.85Q36.58 8.74 36.58 10.51L36.58 10.51L36.58 11.76Q36.58 14.62 37.68 15.26L37.68 15.26Q38.18 15.58 39 15.58Q39.82 15.58 40.33 15.42Q40.85 15.26 41.08 14.88Q41.30 14.50 41.38 14.12Q41.45 13.75 41.47 13.03ZM53.40 11.04L58.70 18.05L54.96 18.05L51.36 13.20L49.99 15.14L49.99 18.05L46.87 18.05L46.87 0L49.99 0L49.99 11.40L54.36 4.90L57.89 4.90L53.40 11.04ZM73.46 9.43L73.46 9.43L73.49 11.28Q73.39 13.03 73.06 14.23Q72.72 15.43 71.74 16.42L71.74 16.42Q70.10 18.05 66.98 18.05L66.98 18.05Q63.31 18.05 61.94 17.08Q60.58 16.10 60.58 13.56L60.58 13.56L60.58 0.96L67.22 0.96Q70.10 0.96 71.74 2.59L71.74 2.59Q73.06 3.91 73.30 5.81L73.30 5.81Q73.46 7.15 73.46 9.43ZM69.41 14.02Q69.86 13.46 70.00 12.49Q70.13 11.52 70.13 9.46Q70.13 7.39 70.00 6.47Q69.86 5.54 69.41 4.99L69.41 4.99Q68.54 3.94 66.91 3.94L66.91 3.94L63.91 3.94L63.91 13.39Q63.91 14.35 64.56 14.71Q65.21 15.07 66.88 15.07Q68.54 15.07 69.41 14.02L69.41 14.02Z" transform="translate(0, 5.308)"></path><line x1="82.488" y1="2%" x2="82.488" y2="98%" stroke="#000000" stroke-linecap="round"></line><g fill="#394bec" color="#394bec" transform="translate(91.488 0) scale(0.3020834)"><svg width="96.0" height="96.0" x="0.0" y="0.0" viewBox="0 0 96 96"><path d="M59.435,72.711c0.653,0,1.284,0.099,1.88,0.276l-0.744-3.267c-1.392,0.449-2.873,0.697-4.413,0.697h-1.235l1.835,2.863  C57.578,72.917,58.482,72.711,59.435,72.711z"></path><path d="M39.242,73.279l1.835-2.862h-1.234c-1.539,0-3.02-0.248-4.412-0.697l-0.746,3.267c0.598-0.177,1.229-0.276,1.883-0.276  C37.519,72.711,38.423,72.916,39.242,73.279z"></path><path d="M36.567,74.211c-2.831,0-5.133,2.302-5.133,5.132c0,0.814,2.062,1.686,5.132,1.686c3.07,0,5.132-0.872,5.132-1.686  C41.698,76.513,39.396,74.211,36.567,74.211z"></path><path d="M59.435,74.211c-2.831,0-5.133,2.302-5.133,5.132c0,0.814,2.062,1.686,5.132,1.686c3.07,0,5.132-0.872,5.132-1.686  C64.566,76.513,62.264,74.211,59.435,74.211z"></path><path d="M85.259,45.101l-0.443-0.199v-17.08h-5.331v8.086H68.887c-0.997-6.134-6.316-10.836-12.728-10.836H39.842  c-6.411,0-11.73,4.702-12.728,10.836H16.514v-6.743l0.442-0.199c2.729-1.227,4.491-3.946,4.491-6.929  c0-2.778-1.545-5.328-3.939-6.649v10.151H10.19V15.388c-2.395,1.321-3.94,3.871-3.94,6.649c0,2.983,1.763,5.702,4.491,6.929  l0.442,0.199v17.079h5.331v-8.835h10.447c-0.009,0.192-0.029,0.38-0.029,0.574v18.024c0,7.119,5.792,12.911,12.91,12.911h16.316  c7.119,0,12.911-5.792,12.911-12.911V37.982c0-0.194-0.021-0.382-0.029-0.574h10.446v7.494l-0.443,0.199  c-2.727,1.225-4.489,3.944-4.489,6.928c0,2.778,1.545,5.328,3.939,6.65V48.527h7.317v10.152c2.394-1.321,3.939-3.872,3.939-6.65  C89.75,49.046,87.987,46.327,85.259,45.101z M53.069,37.408h5.421c0.674,0.687,1.093,1.625,1.093,2.661  c0,2.097-1.706,3.803-3.803,3.803s-3.804-1.706-3.804-3.803C51.976,39.033,52.395,38.095,53.069,37.408z M50.184,55.066h4.742v1.5  h-4.742V55.066z M37.511,37.408h5.421c0.674,0.687,1.093,1.625,1.093,2.661c0,2.097-1.706,3.803-3.803,3.803  s-3.804-1.706-3.804-3.803C36.418,39.033,36.837,38.095,37.511,37.408z M36.901,61.5h-3.415V60h3.415V61.5z M45.819,61.5h-4.745V60  h4.745V61.5z M46.197,56.566H33.486v-1.5h12.711V56.566z M62.514,61.5H49.803V60h12.711V61.5z M62.514,56.566h-3.415v-1.5h3.415  V56.566z"></path></svg></g></svg>